<svg width="48" height="48" viewBox="0 0 48 48" fill="none" xmlns="http://www.w3.org/2000/svg">
<g clip-path="url(#clip0_3779_1421)">
<path fill-rule="evenodd" clip-rule="evenodd" d="M34.279 8.01816L14.1559 30.193L13.8186 30.5647L12.7108 31.7855L12.5895 31.9192C12.5621 31.9493 12.547 31.9885 12.547 32.0292C12.547 32.1197 12.6203 32.193 12.7108 32.193H12.8912H14.5397H15.0417H23.447C26.6768 32.193 29.295 34.8112 29.295 38.041C29.295 42.789 28.523 43.964 24.44 44H12C7.58172 44 4 40.4183 4 36V12C4 7.58172 7.58173 4 12 4H36.001C40.4193 4 44.001 7.58172 44.001 12V24.1837C44.001 26.4786 42.2639 28.389 39.969 28.389C37.9311 28.389 36.279 26.7369 36.279 24.699V8.79035V8.1741V6.64079V6.42633C36.279 6.29581 36.1732 6.19 36.0427 6.19C35.976 6.19 35.9125 6.21815 35.8677 6.26751L35.7235 6.42633L34.6931 7.56183L34.279 8.01816ZM12 42H24.4312C26.4514 41.9812 26.7563 41.6402 26.8283 41.5489C26.8979 41.4607 27.0353 41.2266 27.1405 40.6255C27.2463 40.0208 27.295 39.1956 27.295 38.041C27.295 35.9158 25.5722 34.193 23.447 34.193H12.7108C11.5158 34.193 10.547 33.2243 10.547 32.0292C10.547 31.4916 10.7471 30.9733 11.1084 30.5751L33.4097 6H12C8.68629 6 6 8.68629 6 12V36C6 39.3137 8.68629 42 12 42ZM38.279 24.699V6.44755C40.463 7.34455 42.001 9.49267 42.001 12V24.1837C42.001 25.4856 41.051 26.389 39.969 26.389C39.0356 26.389 38.279 25.6324 38.279 24.699ZM29.295 18.2551V15.274L27.295 17.4846L19.2385 26.389L17.429 28.389H20.1261H27.295H29.295V26.389V18.2551ZM27.295 26.389V20.4656L21.9356 26.389H27.295ZM38.7446 41.5492C38.8165 41.6403 39.1213 41.9812 41.1421 42H42V34.193H38.278V38.041C38.278 39.1959 38.3267 40.0212 38.4325 40.6259C38.5376 41.2271 38.6751 41.4611 38.7446 41.5492ZM36.278 34.193V38.041C36.278 42.79 37.05 43.964 41.133 44H42H44V42V34.193V32.193H42H38.278H36.278V34.193Z" fill="black"/>
</g>
<defs>
<clipPath id="clip0_3779_1421">
<rect width="40" height="40" fill="white" transform="translate(4 4)"/>
</clipPath>
</defs>
</svg>
