<svg width="49" height="50" viewBox="0 0 49 50" fill="none" xmlns="http://www.w3.org/2000/svg">
<path fill-rule="evenodd" clip-rule="evenodd" d="M10.1344 8.63747H17.8654C18.2883 8.63747 18.6248 8.2964 18.6294 7.87802C18.6294 7.45964 18.2883 7.11857 17.8699 7.11857H10.1344C9.71606 7.11857 9.37498 7.45964 9.37498 7.87802C9.37498 8.2964 9.71606 8.63747 10.1344 8.63747ZM14.5775 12.0891C14.5775 12.5893 14.9822 12.9941 15.4824 12.9941C15.9781 12.9941 16.3874 12.5893 16.3874 12.0891C16.3874 11.5889 15.9827 11.1841 15.4824 11.1841C14.9822 11.1841 14.5775 11.5889 14.5775 12.0891ZM11.617 12.0891C11.617 12.5893 12.0217 12.9941 12.5219 12.9941C13.0222 12.9941 13.4269 12.5893 13.4269 12.0891C13.4269 11.5889 13.0222 11.1841 12.5219 11.1841C12.0217 11.1841 11.617 11.5889 11.617 12.0891ZM22.0765 7.50966C22.2902 9.3469 21.408 10.9977 19.9982 11.8981C19.8436 11.9982 19.8118 12.1892 19.93 12.3347C20.9623 13.5443 21.6354 15.0723 21.7718 16.755C21.79 16.9278 21.6581 17.0733 21.4853 17.0733H6.51453C6.34627 17.0733 6.21439 16.9232 6.22803 16.755C6.36901 15.0723 7.03751 13.5443 8.07437 12.3347C8.1926 12.1937 8.16077 12.0027 8.00615 11.9027C6.50089 10.9431 5.59592 9.13316 5.98246 7.1504C6.35082 5.25405 7.85153 3.83064 9.76153 3.55324C10.6892 3.41681 11.5715 3.56233 12.34 3.9125C13.3996 4.39455 14.6002 4.3991 15.6598 3.9125C16.4329 3.55779 17.3242 3.41226 18.2565 3.55324C20.2483 3.84883 21.8445 5.50871 22.0765 7.50966ZM6.60503 18.4375H21.3939C21.5758 18.4375 21.7122 18.6012 21.6804 18.7831C21.0301 22.4348 17.8422 25.2134 13.9995 25.2134C10.1567 25.2134 6.96884 22.4394 6.31853 18.7831C6.2867 18.6012 6.42313 18.4375 6.60503 18.4375ZM3.63601 8.6102C2.18987 9.20139 1.16666 10.6112 1.16666 12.2665V12.9168C1.16666 14.5721 2.19442 15.9773 3.63601 16.5731C3.82701 16.6504 4.0362 16.514 4.0362 16.3048V8.87851C4.0362 8.67387 3.82701 8.53289 3.63601 8.6102ZM23.9637 8.8785C23.9637 8.66931 24.1729 8.53288 24.3639 8.61019C25.81 9.20593 26.8332 10.6111 26.8332 12.2665V12.9168C26.8332 14.5721 25.81 15.9819 24.3639 16.5731C24.1729 16.6504 23.9637 16.5094 23.9637 16.3048V8.8785Z" fill="#131928"/>
<path fill-rule="evenodd" clip-rule="evenodd" d="M32.1561 49H46.6667V48.9999H44.5399C41.5109 48.9732 40.9382 48.1039 40.9382 44.587V40.2563H46.6667V37.315C45.876 37.3979 44.9563 37.4394 43.6763 37.4394H40.9389V21H40.6859L23.3333 40.0883V40.2564H35.7578V44.5871C35.7578 48.1032 35.1851 48.9733 32.1561 49ZM35.7579 27.7269V37.4391H26.9551L35.7579 27.7269Z" fill="black"/>
<line opacity="0.4" x1="37.3536" y1="13.3536" x2="11.3536" y2="39.3536" stroke="black"/>
</svg>
