<svg width="18" height="18" viewBox="0 0 18 18" fill="none" xmlns="http://www.w3.org/2000/svg">
<g clip-path="url(#clip0_4189_50289)">
<path d="M13.2723 10.6777C13.0094 10.6777 12.796 10.4598 12.796 10.1925V4.33964C12.796 4.15992 12.7185 3.98223 12.578 3.83968L10.9742 2.2054C10.8073 2.03739 10.5904 1.94116 10.3804 1.94116C10.1705 1.94116 9.95412 2.03739 9.78669 2.20591L2.22179 9.913C2.04087 10.0973 1.94141 10.3122 1.94141 10.5178C1.94141 10.7235 2.04087 10.9394 2.22229 11.1242L3.82463 12.7351C3.96458 12.8786 4.139 12.9576 4.31593 12.9576H10.0601C10.323 12.9576 10.5364 13.1755 10.5364 13.4427V17.0005H12.631V13.765C12.631 13.4066 12.5061 13.0889 12.2697 12.8455L10.6648 11.2113C10.4349 10.9781 10.1136 10.8442 9.78369 10.8442H4.26046C4.24546 10.8442 4.23796 10.835 4.23547 10.8269C4.23197 10.8136 4.23297 10.8055 4.24096 10.7973L10.6543 4.2648C10.6598 4.2592 10.6658 4.25614 10.6728 4.25614C10.6728 4.25614 10.7003 4.25716 10.7003 4.28414V9.76077C10.7003 10.1401 10.8458 10.4975 11.1096 10.7678L12.687 12.3736C12.9509 12.6424 13.3017 12.7906 13.6751 12.7906H16.9997V10.6777H13.2718H13.2723Z" fill="black"/>
</g>
<defs>
<clipPath id="clip0_4189_50289">
<rect width="15.0588" height="15.0588" fill="black" transform="translate(1.94141 1.94116)"/>
</clipPath>
</defs>
</svg>
