<svg width="18" height="18" viewBox="0 0 18 18" fill="none" xmlns="http://www.w3.org/2000/svg">
<path fill-rule="evenodd" clip-rule="evenodd" d="M15.4137 9.87093C15.4137 10.0614 15.5687 10.2164 15.7592 10.2164H18V11.7196H16.0512C15.7806 11.7196 15.5263 11.6143 15.3349 11.4229L14.1914 10.2802C14 10.088 13.8947 9.83368 13.8947 9.56396V5.66713C13.8947 5.64744 13.8746 5.64701 13.8746 5.64701C13.8698 5.64701 13.8656 5.64872 13.8613 5.65301L9.2434 10.2709C9.25689 10.2919 9.2701 10.3132 9.28302 10.3346H13.2302C13.4695 10.3346 13.7024 10.4301 13.869 10.5958L15.0318 11.7586C15.2035 11.9315 15.2938 12.1576 15.2938 12.4127V14.7148H13.7757V12.1833C13.7757 11.9927 13.6207 11.8378 13.4302 11.8378H9.68251C9.67688 11.9644 9.66267 12.0958 9.63993 12.2325C9.56544 12.6803 9.35052 13.1127 9.00159 13.5173C8.6578 13.9155 8.2575 14.2164 7.81139 14.4108C7.49501 14.5487 7.16363 14.636 6.79844 14.6775C6.5056 14.7109 5.77778 14.7174 4.34141 14.7131C3.60032 14.7109 2.90846 14.4934 2.28511 14.0666C1.78805 13.7262 1.42628 13.3204 1.17968 12.8259L1.17368 12.8139C1.38903 12.7462 1.60096 12.6777 1.80646 12.611L1.81673 12.6075L2.14682 12.5009L2.59036 12.3584C2.83054 12.6996 3.16748 12.9389 3.64613 13.108C3.91414 13.2026 4.15988 13.2103 4.40905 13.2103H4.50153H4.50192C4.87847 13.2103 5.15788 13.2103 6.48205 13.2082C7.10712 13.2073 7.62558 12.9376 7.98179 12.4286C8.31658 11.9495 8.2635 11.2919 7.85506 10.8655C7.45647 10.4489 6.99324 10.2464 6.43581 10.2464C4.57388 10.2498 4.44159 10.2498 4.3123 10.2498C4.02031 10.2498 3.72105 10.1912 3.44062 10.1282C2.80357 9.98439 2.25086 9.65687 1.7508 9.12599C1.45582 8.81303 1.23619 8.41915 1.07949 7.92166C1.01442 7.71402 1.00286 7.48197 1.00029 7.30302C0.995153 6.9284 1.05809 6.5859 1.18781 6.28492C1.43227 5.71894 1.78548 5.27625 2.26884 4.93118C2.66272 4.6499 3.06601 4.46666 3.5027 4.37033C3.68209 4.33094 3.87432 4.32709 4.07254 4.32709C4.20161 4.32694 4.25566 4.32678 4.30271 4.32665C4.38645 4.32641 4.44805 4.32624 4.871 4.32624C5.95963 4.32586 6.0657 4.32517 6.34873 4.32333C6.39283 4.32304 6.44123 4.32273 6.49832 4.32238H6.52058C7.30534 4.32238 8.03145 4.60709 8.74 5.19277C9.04569 5.44536 9.29443 5.76304 9.49865 6.16248C9.35779 6.20743 9.22165 6.25667 9.08936 6.30462L9.08489 6.30624C8.99551 6.33871 8.90289 6.37235 8.81193 6.40309C8.63982 6.46131 8.47114 6.51526 8.26821 6.57948C8.22582 6.59275 8.18301 6.60517 8.13206 6.61972C8.12457 6.62186 8.11719 6.624 8.10981 6.62614C8.10242 6.62828 8.09503 6.63042 8.08754 6.63257C7.8221 6.23869 7.43207 5.98095 6.89648 5.84524C6.65759 5.78487 6.44181 5.77973 6.20462 5.77973C5.73899 5.77943 5.689 5.77955 5.1654 5.78086C4.94713 5.7814 4.64656 5.78215 4.19927 5.78316C3.49072 5.78487 2.94357 6.10554 2.61691 6.71091C2.37458 7.15959 2.47477 7.76839 2.85537 8.15885C3.24026 8.55358 3.72405 8.74538 4.33541 8.74538C5.00721 8.74474 5.09269 8.74442 5.17817 8.74478C5.26495 8.74515 5.35172 8.74622 6.05178 8.74838L6.3078 8.74923C6.80786 8.75095 7.19617 8.80917 7.53011 8.9329C7.76423 9.01976 7.98008 9.12261 8.17883 9.2423L13.2324 4.18838C13.3535 4.0685 13.5102 4 13.6626 4C13.815 4 13.9722 4.0685 14.0933 4.18795L15.2557 5.35075C15.3576 5.45221 15.4137 5.57851 15.4137 5.70652V9.87093Z" fill="#F5F7FA"/>
</svg>
